<svg width="20" height="24" viewBox="0 0 20 24" fill="none" xmlns="http://www.w3.org/2000/svg">
<path fill-rule="evenodd" clip-rule="evenodd" d="M10.125 22.5C5.361 22.5 1.5 18.4807 1.5 13.9688C1.5 12.921 1.52325 12.0705 2.25 11.25C2.17125 11.7255 3.29774 15.7912 6.97874 15.5782C6.81899 12.489 5.98351 4.92075 9.86401 2.30475C9.52126 6.41775 10.5285 11.943 15.0217 12.75C14.7645 11.1007 14.7952 8.35726 15.9502 7.85026C16.0747 10.377 17.943 11.9355 17.943 14.364C17.943 18.762 13.6882 22.5 10.125 22.5ZM17.1787 5.21475C13.89 6.15225 13.2878 8.811 13.5 10.5C11.154 7.7415 11.25 4.56975 11.25 0C3.726 2.83725 5.47575 11.016 5.25 13.5C3.35775 11.9513 3 8.25 3 8.25C1.002 9.27825 0 12.0232 0 14.25C0 19.635 4.365 24 9.75 24C15.135 24 19.5 19.635 19.5 14.25C19.5 11.0497 17.1502 9.57375 17.1787 5.21475Z" fill="white"/>
</svg>
