<svg width="30" height="30" viewBox="0 0 30 30" fill="none" xmlns="http://www.w3.org/2000/svg">
<g clip-path="url(#clip0_240_24)">
<path d="M0.772207 11.898C0.772207 11.898 0.771973 11.8973 0.771797 11.8965L0.732422 11.7932L0.772207 11.898Z" fill="white"/>
<path d="M1.01025 9.57504L1.66521 9.14731C1.66557 9.14731 1.66592 9.14689 1.66633 9.14648L1.01025 9.57504Z" fill="white"/>
<path d="M28.1461 15.2617C28.114 15.1775 28.0979 15.0888 28.0979 15C28.0979 14.9109 28.114 14.8218 28.1463 14.7368L29.1347 12.1426L29.2277 11.8981C29.3296 11.6307 29.3789 11.3518 29.3789 11.0774C29.3793 10.3165 29.0005 9.58237 28.3339 9.1466L28.0059 8.93239L25.7887 7.48465C25.6381 7.38598 25.5281 7.2341 25.4811 7.06002L24.6872 4.12758C24.4133 3.11801 23.4989 2.42397 22.462 2.42397C22.4228 2.42397 22.3837 2.42473 22.3445 2.42701L19.322 2.57813V2.57778L19.2767 2.57895C19.107 2.57895 18.9435 2.52153 18.8119 2.41559L16.599 0.633167L16.4468 0.510764C16.0256 0.170628 15.511 -0.000349035 14.9999 2.52786e-06C14.489 -0.000759191 13.9743 0.170628 13.5528 0.510764L13.5534 0.510354L11.432 2.21895L11.1883 2.41524C11.0562 2.52158 10.892 2.57901 10.7231 2.57901L10.6837 2.57813L7.66287 2.42742L7.66094 2.42701C7.61406 2.42432 7.57293 2.42397 7.53777 2.42397C6.50061 2.42397 5.58643 3.11795 5.3125 4.12758L4.51861 7.06002C4.47139 7.23481 4.36082 7.38709 4.20936 7.48617L3.99068 7.62891L1.66486 9.14737C0.998594 9.58354 0.620254 10.3172 0.620606 11.0778C0.620606 11.3517 0.669766 11.6295 0.771367 11.8965L1.8533 14.7367L1.85348 14.7371C1.88559 14.8213 1.90188 14.9108 1.90188 14.9999C1.90188 15.0891 1.88582 15.1782 1.85348 15.2624L0.771778 18.1019L0.771953 18.1015C0.67 18.369 0.620606 18.6475 0.620606 18.9218C0.620254 19.6828 0.998594 20.4173 1.6658 20.8534L3.55357 22.0861L4.20988 22.5146C4.36123 22.6133 4.47139 22.7648 4.51861 22.94L5.3125 25.8721C5.58619 26.8816 6.50078 27.5757 7.53777 27.576C7.57293 27.5757 7.61125 27.5753 7.65215 27.573L7.56531 27.5776L10.6965 27.4211H10.695L10.7243 27.4207C10.8922 27.4207 11.0558 27.4781 11.1878 27.5845L13.5532 29.4901H13.5534C13.9744 29.8294 14.4888 30.0004 14.9999 30.0001C15.5109 30.0005 16.0254 29.8294 16.4467 29.4897L19.0155 27.4203L18.8123 27.5841C18.9443 27.4777 19.1075 27.4207 19.2756 27.4207L19.3108 27.4215L22.3687 27.5741L22.3534 27.5734C22.3867 27.5749 22.4229 27.5757 22.4621 27.576C23.4987 27.5757 24.4136 26.8821 24.6873 25.8721L25.4812 22.94C25.5284 22.7648 25.6384 22.6137 25.7895 22.5149L28.3354 20.8526C29.0012 20.4165 29.3794 19.6828 29.3791 18.9221C29.3791 18.6478 29.3297 18.3689 29.2275 18.1011L28.1461 15.2617ZM26.6822 14.179C26.5814 14.4434 26.5309 14.7219 26.5309 15C26.5309 15.2786 26.5814 15.5571 26.6822 15.8214L27.7632 18.6597L27.7634 18.6601C27.7965 18.747 27.812 18.835 27.812 18.9222C27.8116 19.1663 27.6911 19.402 27.4771 19.5416L24.9335 21.2024H24.9337C24.4599 21.5115 24.1163 21.9844 23.9684 22.5307L23.1746 25.4627C23.0876 25.7864 22.7929 26.0091 22.4621 26.0087L22.4181 26.0075L22.407 26.0071L19.3909 25.8568H19.393C19.3559 25.8545 19.3167 25.8537 19.2756 25.8533C18.7502 25.8533 18.2394 26.0331 17.8287 26.3641L17.6254 26.5282L15.4635 28.2697C15.3273 28.3795 15.1654 28.433 15 28.433C14.8347 28.433 14.6727 28.3795 14.5363 28.2697L12.171 26.3641C11.7605 26.0336 11.25 25.8537 10.7243 25.8537C10.6891 25.8537 10.648 25.8541 10.6009 25.8568V25.8572L7.57516 26.0083L7.57609 26.0079L7.53789 26.0087C7.2073 26.0091 6.91234 25.7864 6.82533 25.4628L6.0315 22.5308C5.88361 21.9844 5.54008 21.5116 5.06623 21.2024L3.17881 19.9702L2.52291 19.5417C2.30904 19.4024 2.18816 19.1664 2.18775 18.9219C2.18793 18.8342 2.20328 18.7463 2.23615 18.6602L3.31785 15.8211L3.31768 15.8215C3.41846 15.5568 3.46897 15.2786 3.46897 15.0001C3.46897 14.7216 3.41869 14.4431 3.31768 14.1787L2.27605 11.4451L2.23627 11.3411C2.20316 11.2538 2.18787 11.1655 2.18764 11.0779C2.18805 10.8334 2.30875 10.5981 2.52256 10.4589L5.06635 8.79815L5.06676 8.79774C5.54031 8.48789 5.88356 8.01539 6.03145 7.46942L6.82527 4.53698C6.91211 4.21371 7.20748 3.99065 7.53783 3.99106L7.5673 3.99141L10.6089 4.14328L10.6122 4.14369C10.6491 4.14522 10.6862 4.14604 10.7232 4.14639C11.2486 4.14639 11.7596 3.96692 12.1705 3.63639L14.5369 1.73039C14.6729 1.62059 14.8345 1.56739 15 1.56703C15.1653 1.56703 15.3271 1.62059 15.4633 1.73039L15.3108 1.60758L17.8291 3.63598C18.2406 3.96727 18.7521 4.14598 19.2768 4.14598C19.3158 4.14598 19.3508 4.14481 19.3818 4.14405H19.3736L22.4249 3.99176H22.4269L22.4621 3.991C22.7927 3.99059 23.0878 4.21365 23.1746 4.53692L23.9685 7.46936C24.1163 8.01528 24.4595 8.48778 24.9331 8.79768L27.8053 10.673L27.4771 10.4588C27.6911 10.5981 27.8116 10.8333 27.812 11.0774C27.812 11.1651 27.7965 11.2531 27.7632 11.3406L26.5426 14.5447L26.6822 14.179Z" fill="white"/>
<path d="M11.4932 13.2595L10.6855 13.4183C10.643 13.4271 10.6197 13.4608 10.6281 13.504L11.229 16.5611L11.194 16.5684L8.87789 13.8483C8.83963 13.8039 8.79293 13.7905 8.74283 13.8005L7.88525 13.9692C7.84277 13.9777 7.81945 14.0113 7.82865 14.0545L8.75543 18.7682C8.76363 18.8115 8.79791 18.8348 8.84039 18.8264L9.64799 18.6676C9.69047 18.6588 9.71379 18.6247 9.70559 18.5815L9.10547 15.5316L9.14121 15.5247L11.4623 18.2364C11.5005 18.2808 11.5407 18.295 11.5981 18.2842L12.4482 18.1167C12.4907 18.1082 12.514 18.0742 12.5048 18.0309L11.5782 13.3168C11.5699 13.2737 11.5356 13.2512 11.4932 13.2595Z" fill="white"/>
<path d="M16.4573 16.3858L14.3637 16.7974C14.3354 16.8036 14.318 16.7921 14.313 16.7634L14.1147 15.7561C14.1087 15.7278 14.1204 15.7109 14.1487 15.7048L15.8923 15.3621C15.9348 15.3536 15.9581 15.3199 15.9499 15.2772L15.8007 14.52C15.7923 14.4776 15.7581 14.4542 15.7156 14.4622L13.9722 14.8054C13.9438 14.8108 13.9263 14.7989 13.9206 14.7706L13.7312 13.8065C13.7255 13.7778 13.7371 13.7606 13.7654 13.7553L15.859 13.3436C15.9015 13.3351 15.9248 13.3011 15.9156 13.2583L15.7656 12.4943C15.7572 12.4511 15.7232 12.4281 15.6805 12.4365L12.5661 13.0491C12.5227 13.0575 12.5001 13.0916 12.5086 13.1347L13.4354 17.8488C13.4445 17.8917 13.4778 17.9146 13.5212 17.9063L16.6356 17.2937C16.6782 17.2853 16.7016 17.2512 16.6924 17.2084L16.5422 16.444C16.5341 16.4011 16.4998 16.3774 16.4573 16.3858Z" fill="white"/>
<path d="M22.1026 11.1735L21.1882 11.3533C21.1383 11.3629 21.1141 11.3905 21.1165 11.4421L21.045 14.6232L21.0299 14.6259L19.574 11.7454C19.5507 11.7045 19.5164 11.6819 19.4739 11.6903L18.8522 11.8124C18.8031 11.8224 18.7797 11.856 18.7738 11.9027L18.5447 15.1148L18.5305 15.1178L17.2303 12.2057C17.2153 12.1636 17.1811 12.1415 17.1312 12.1514L16.2094 12.3319C16.1595 12.3419 16.1511 12.3733 16.1669 12.415L18.3505 16.8816C18.3738 16.9217 18.4079 16.9451 18.4506 16.9367L19.1648 16.7959C19.2147 16.7863 19.2381 16.7518 19.2438 16.7063L19.4997 13.5179L19.5139 13.5153L20.9507 16.3705C20.9733 16.4106 21.0075 16.434 21.0575 16.424L21.7717 16.2832C21.8216 16.274 21.8517 16.2381 21.8509 16.1933L22.1734 11.2336C22.1717 11.1888 22.1525 11.1636 22.1026 11.1735Z" fill="white"/>
</g>
<defs>
<clipPath id="clip0_240_24">
<rect width="30" height="30" fill="white"/>
</clipPath>
</defs>
</svg>
