<svg width="26" height="26" viewBox="0 0 26 26" fill="none" xmlns="http://www.w3.org/2000/svg">
<g clip-path="url(#clip0_242_108)">
<path d="M22.5473 7.20935L12.4898 17.2668C11.4883 18.2683 8.51527 18.7322 7.85109 18.068C7.18692 17.4039 7.64025 14.4309 8.64178 13.4293L18.7099 3.36133C18.9581 3.09045 19.2587 2.8727 19.5935 2.72121C19.9282 2.56971 20.2903 2.48759 20.6577 2.47985C21.025 2.47212 21.3902 2.5389 21.731 2.67617C22.0718 2.81344 22.3814 3.01839 22.6408 3.27858C22.9003 3.53877 23.1044 3.84882 23.2407 4.19004C23.377 4.53126 23.4429 4.89656 23.4341 5.26391C23.4254 5.63126 23.3422 5.99307 23.1899 6.32742C23.0374 6.66178 22.8189 6.9618 22.5473 7.20935Z" stroke="#33674E" stroke-width="2.54776" stroke-linecap="round" stroke-linejoin="round"/>
<path d="M11.7099 4.6792H6.43866C5.32024 4.6792 4.24771 5.12348 3.45687 5.91432C2.66603 6.70516 2.22168 7.77776 2.22168 8.89618V19.4386C2.22168 20.5571 2.66603 21.6297 3.45687 22.4205C4.24771 23.2114 5.32024 23.6556 6.43866 23.6556H18.0354C20.3652 23.6556 21.1981 21.758 21.1981 19.4386V14.1674" stroke="#33674E" stroke-width="2.54776" stroke-linecap="round" stroke-linejoin="round"/>
</g>
<defs>
<clipPath id="clip0_242_108">
<rect width="25.3019" height="25.3019" fill="white" transform="translate(0.113281 0.462158)"/>
</clipPath>
</defs>
</svg>
